<?xml version="1.0" encoding="UTF-8" standalone="no"?>
<svg width="256px" height="283px" viewBox="0 0 256 283" version="1.1" xmlns="http://www.w3.org/2000/svg" xmlns:xlink="http://www.w3.org/1999/xlink" preserveAspectRatio="xMidYMid">
	<g>
		<path className="path2" d="M246.399036,139.203 C246.399036,123.218 234.882036,109.88 219.711036,107.031 L256.000036,0 L84.4660355,0 L120.810036,107.248 C106.167036,110.507 95.1830355,123.593 95.1830355,139.203 C95.1830355,150.926 101.378036,161.223 110.663036,167.009 C106.197036,173.662 100.901036,179.923 94.8320355,185.648 C85.2080355,194.728 74.4850355,201.614 62.9250355,206.144 C51.2820355,198.83 46.3600355,185.038 51.4720355,173.022 L51.8720355,172.082 C52.1220355,171.494 52.3730355,170.904 52.6230355,170.314 C65.4110355,165.855 74.6160355,153.682 74.6160355,139.392 C74.6160355,121.337 59.9270355,106.649 41.8720355,106.649 C23.8170355,106.649 9.12903553,121.337 9.12903553,139.392 C9.12903553,148.505 12.8740355,156.757 18.9020355,162.699 C17.8090355,165.029 16.6600355,167.397 15.4790355,169.823 C9.96703553,181.144 3.72003553,193.976 1.35703553,208.225 C-3.33596447,236.524 4.23303553,259.146 22.6700355,271.924 C33.8580355,279.678 45.2190355,282.728 56.6520355,282.727 C78.1810355,282.726 99.9580355,271.911 121.258036,261.331 C136.599036,253.712 152.461036,245.833 168.130036,241.969 C173.960036,240.531 179.959036,239.666 186.310036,238.75 C198.904036,236.933 211.928036,235.055 223.464036,228.374 C236.835036,220.629 245.989036,207.637 248.577036,192.73 C250.799036,179.933 248.124036,167.117 241.602036,156.247 C244.643036,151.279 246.399036,145.443 246.399036,139.203 L246.399036,139.203 Z M233.545036,139.203 C233.545036,150.17 224.623036,159.093 213.655036,159.093 C202.689036,159.093 193.766036,150.17 193.766036,139.203 C193.766036,128.236 202.689036,119.314 213.655036,119.314 C224.623036,119.314 233.545036,128.236 233.545036,139.203 L233.545036,139.203 Z M238.069036,12.854 L206.024036,107.367 C204.635036,107.7 203.281036,108.12 201.966036,108.625 L170.310036,44.047 L138.562036,108.243 C137.190036,107.77 135.778036,107.381 134.330036,107.093 L102.395036,12.854 L238.069036,12.854 L238.069036,12.854 Z M127.926036,119.314 C138.893036,119.314 147.815036,128.236 147.815036,139.203 C147.815036,150.17 138.893036,159.093 127.926036,159.093 C116.960036,159.093 108.037036,150.17 108.037036,139.203 C108.037036,128.236 116.960036,119.314 127.926036,119.314 L127.926036,119.314 Z M41.8720355,119.503 C52.8400355,119.503 61.7620355,128.425 61.7620355,139.392 C61.7620355,150.359 52.8400355,159.282 41.8720355,159.282 C30.9060355,159.282 21.9830355,150.359 21.9830355,139.392 C21.9830355,128.425 30.9060355,119.503 41.8720355,119.503 L41.8720355,119.503 Z M235.912036,190.531 C233.977036,201.679 227.091036,211.418 217.021036,217.25 C207.634036,222.687 196.385036,224.31 184.475036,226.027 C178.095036,226.947 171.497036,227.899 165.052036,229.489 C148.010036,233.691 131.503036,241.89 115.540036,249.819 C83.5950355,265.686 56.0060355,279.388 29.9930355,261.359 C10.9380355,248.153 11.8180355,223.718 14.0380355,210.328 C16.0950355,197.923 21.6570355,186.498 27.0360355,175.449 C27.9670355,173.537 28.8710355,171.664 29.7580355,169.803 C32.4260355,170.87 35.2630355,171.597 38.2200355,171.927 C32.7450355,189.998 41.3560355,209.646 59.4290355,218.931 L61.9020355,220.202 L64.5220355,219.269 C78.8100355,214.181 91.9750355,206.015 103.653036,194.998 C111.202036,187.877 117.689036,179.998 123.023036,171.579 C124.623036,171.82 126.260036,171.947 127.926036,171.947 C145.981036,171.947 160.670036,157.259 160.670036,139.203 C160.670036,129.493 156.417036,120.761 149.681036,114.759 L170.259036,73.147 L191.046036,115.552 C184.809036,121.518 180.912036,129.911 180.912036,139.203 C180.912036,157.259 195.600036,171.947 213.655036,171.947 C220.592036,171.947 227.027036,169.773 232.327036,166.079 C236.007036,173.612 237.378036,182.088 235.912036,190.531 L235.912036,190.531 Z" fill="#FFFFFF"></path>
	</g>
</svg>